<mxfile host="Electron" agent="Mozilla/5.0 (Windows NT 10.0; Win64; x64) AppleWebKit/537.36 (KHTML, like Gecko) draw.io/24.7.17 Chrome/128.0.6613.36 Electron/32.0.1 Safari/537.36" version="24.7.17">
  <diagram name="第 1 页" id="3xJzku0ZrpRLKLXGxiB9">
    <mxGraphModel dx="2589" dy="822" grid="1" gridSize="10" guides="1" tooltips="1" connect="1" arrows="1" fold="1" page="1" pageScale="1" pageWidth="1169" pageHeight="827" math="0" shadow="0">
      <root>
        <mxCell id="0" />
        <mxCell id="1" parent="0" />
        <mxCell id="7UYHVQ5-cGlNShHgb3-M-1" value="" style="rounded=0;whiteSpace=wrap;html=1;" parent="1" vertex="1">
          <mxGeometry x="130" y="119" width="960" height="590" as="geometry" />
        </mxCell>
        <mxCell id="7UYHVQ5-cGlNShHgb3-M-2" value="" style="rounded=0;whiteSpace=wrap;html=1;fillColor=#f5f5f5;fontColor=#333333;strokeColor=#666666;" parent="1" vertex="1">
          <mxGeometry x="130" y="169" width="960" height="540" as="geometry" />
        </mxCell>
        <mxCell id="7UYHVQ5-cGlNShHgb3-M-3" value="" style="line;strokeWidth=1;fillColor=none;align=left;verticalAlign=middle;spacingTop=-1;spacingLeft=3;spacingRight=3;rotatable=0;labelPosition=right;points=[];portConstraint=eastwest;strokeColor=inherit;" parent="1" vertex="1">
          <mxGeometry x="130" y="164" width="960" height="8" as="geometry" />
        </mxCell>
        <mxCell id="7UYHVQ5-cGlNShHgb3-M-4" value="欢迎，ikklo！" style="text;align=center;fontStyle=1;verticalAlign=middle;spacingLeft=3;spacingRight=3;strokeColor=none;rotatable=0;points=[[0,0.5],[1,0.5]];portConstraint=eastwest;html=1;" parent="1" vertex="1">
          <mxGeometry x="565" y="129" width="90" height="30" as="geometry" />
        </mxCell>
        <mxCell id="7UYHVQ5-cGlNShHgb3-M-5" value="头像" style="ellipse;whiteSpace=wrap;html=1;aspect=fixed;" parent="1" vertex="1">
          <mxGeometry x="140" y="124" width="40" height="40" as="geometry" />
        </mxCell>
        <mxCell id="7UYHVQ5-cGlNShHgb3-M-6" value="探索" style="rounded=0;whiteSpace=wrap;html=1;" parent="1" vertex="1">
          <mxGeometry x="930" y="129" width="60" height="30" as="geometry" />
        </mxCell>
        <mxCell id="7UYHVQ5-cGlNShHgb3-M-7" value="书架" style="rounded=0;whiteSpace=wrap;html=1;" parent="1" vertex="1">
          <mxGeometry x="850" y="129" width="60" height="30" as="geometry" />
        </mxCell>
        <mxCell id="7UYHVQ5-cGlNShHgb3-M-8" value="上传" style="rounded=0;whiteSpace=wrap;html=1;" parent="1" vertex="1">
          <mxGeometry x="770" y="129" width="60" height="30" as="geometry" />
        </mxCell>
        <mxCell id="7UYHVQ5-cGlNShHgb3-M-9" value="论坛" style="rounded=0;whiteSpace=wrap;html=1;" parent="1" vertex="1">
          <mxGeometry x="1010" y="129" width="60" height="30" as="geometry" />
        </mxCell>
        <mxCell id="7UYHVQ5-cGlNShHgb3-M-14" value="默认显示“探索”页面" style="text;html=1;align=center;verticalAlign=middle;whiteSpace=wrap;rounded=0;fontSize=20;" parent="1" vertex="1">
          <mxGeometry x="510" y="406" width="200" height="66" as="geometry" />
        </mxCell>
        <mxCell id="7UYHVQ5-cGlNShHgb3-M-15" value="" style="endArrow=none;html=1;rounded=0;entryX=0;entryY=0;entryDx=0;entryDy=0;exitX=1;exitY=1;exitDx=0;exitDy=0;" parent="1" source="7UYHVQ5-cGlNShHgb3-M-2" target="7UYHVQ5-cGlNShHgb3-M-2" edge="1">
          <mxGeometry width="50" height="50" relative="1" as="geometry">
            <mxPoint x="420" y="410" as="sourcePoint" />
            <mxPoint x="470" y="360" as="targetPoint" />
          </mxGeometry>
        </mxCell>
        <mxCell id="7UYHVQ5-cGlNShHgb3-M-16" value="" style="endArrow=none;html=1;rounded=0;entryX=1;entryY=0;entryDx=0;entryDy=0;exitX=0;exitY=1;exitDx=0;exitDy=0;" parent="1" source="7UYHVQ5-cGlNShHgb3-M-2" target="7UYHVQ5-cGlNShHgb3-M-2" edge="1">
          <mxGeometry width="50" height="50" relative="1" as="geometry">
            <mxPoint x="610" y="590" as="sourcePoint" />
            <mxPoint x="660" y="540" as="targetPoint" />
          </mxGeometry>
        </mxCell>
        <mxCell id="7UYHVQ5-cGlNShHgb3-M-17" value="" style="endArrow=classic;html=1;rounded=0;entryX=0.5;entryY=0;entryDx=0;entryDy=0;" parent="1" target="7UYHVQ5-cGlNShHgb3-M-8" edge="1">
          <mxGeometry width="50" height="50" relative="1" as="geometry">
            <mxPoint x="990" y="40" as="sourcePoint" />
            <mxPoint x="990" as="targetPoint" />
          </mxGeometry>
        </mxCell>
        <mxCell id="7UYHVQ5-cGlNShHgb3-M-18" value="管理员上传书籍，普通用户无此按钮" style="text;html=1;align=center;verticalAlign=middle;whiteSpace=wrap;rounded=0;fontSize=20;" parent="1" vertex="1">
          <mxGeometry x="940" width="350" height="40" as="geometry" />
        </mxCell>
        <mxCell id="7UYHVQ5-cGlNShHgb3-M-19" value="" style="endArrow=classic;html=1;rounded=0;entryX=0.5;entryY=0;entryDx=0;entryDy=0;" parent="1" target="7UYHVQ5-cGlNShHgb3-M-1" edge="1">
          <mxGeometry width="50" height="50" relative="1" as="geometry">
            <mxPoint x="600" y="30" as="sourcePoint" />
            <mxPoint x="670" y="40" as="targetPoint" />
          </mxGeometry>
        </mxCell>
        <mxCell id="7UYHVQ5-cGlNShHgb3-M-20" value="" style="endArrow=classic;html=1;rounded=0;exitX=0;exitY=0.5;exitDx=0;exitDy=0;" parent="1" source="7UYHVQ5-cGlNShHgb3-M-5" edge="1">
          <mxGeometry width="50" height="50" relative="1" as="geometry">
            <mxPoint x="280" y="60" as="sourcePoint" />
            <mxPoint x="-201" y="440" as="targetPoint" />
          </mxGeometry>
        </mxCell>
        <mxCell id="7UYHVQ5-cGlNShHgb3-M-21" value="随机显示欢迎语" style="text;html=1;align=center;verticalAlign=middle;whiteSpace=wrap;rounded=0;fontSize=20;" parent="1" vertex="1">
          <mxGeometry x="520" width="165" height="30" as="geometry" />
        </mxCell>
        <mxCell id="7UYHVQ5-cGlNShHgb3-M-22" value="点击头像&lt;div style=&quot;font-size: 20px;&quot;&gt;进入账号管理页面&lt;/div&gt;" style="text;html=1;align=center;verticalAlign=middle;whiteSpace=wrap;rounded=0;fontSize=20;" parent="1" vertex="1">
          <mxGeometry x="-300" y="442" width="180" height="68" as="geometry" />
        </mxCell>
        <mxCell id="7UYHVQ5-cGlNShHgb3-M-23" value="" style="endArrow=classic;html=1;rounded=0;exitX=0.5;exitY=1;exitDx=0;exitDy=0;entryX=0;entryY=0;entryDx=0;entryDy=0;" parent="1" source="7UYHVQ5-cGlNShHgb3-M-22" target="7UYHVQ5-cGlNShHgb3-M-24" edge="1">
          <mxGeometry width="50" height="50" relative="1" as="geometry">
            <mxPoint x="-230" y="870" as="sourcePoint" />
            <mxPoint x="130" y="920" as="targetPoint" />
          </mxGeometry>
        </mxCell>
        <mxCell id="7UYHVQ5-cGlNShHgb3-M-24" value="" style="rounded=0;whiteSpace=wrap;html=1;" parent="1" vertex="1">
          <mxGeometry x="130" y="770" width="960" height="590" as="geometry" />
        </mxCell>
        <mxCell id="7UYHVQ5-cGlNShHgb3-M-25" value="" style="rounded=0;whiteSpace=wrap;html=1;fillColor=#f5f5f5;fontColor=#333333;strokeColor=#666666;" parent="1" vertex="1">
          <mxGeometry x="310" y="820" width="780" height="540" as="geometry" />
        </mxCell>
        <mxCell id="7UYHVQ5-cGlNShHgb3-M-26" value="" style="line;strokeWidth=1;fillColor=none;align=left;verticalAlign=middle;spacingTop=-1;spacingLeft=3;spacingRight=3;rotatable=0;labelPosition=right;points=[];portConstraint=eastwest;strokeColor=inherit;" parent="1" vertex="1">
          <mxGeometry x="130" y="815" width="960" height="8" as="geometry" />
        </mxCell>
        <mxCell id="7UYHVQ5-cGlNShHgb3-M-27" value="欢迎，ikklo！" style="text;align=center;fontStyle=1;verticalAlign=middle;spacingLeft=3;spacingRight=3;strokeColor=none;rotatable=0;points=[[0,0.5],[1,0.5]];portConstraint=eastwest;html=1;" parent="1" vertex="1">
          <mxGeometry x="565" y="780" width="90" height="30" as="geometry" />
        </mxCell>
        <mxCell id="7UYHVQ5-cGlNShHgb3-M-28" value="头像" style="ellipse;whiteSpace=wrap;html=1;aspect=fixed;" parent="1" vertex="1">
          <mxGeometry x="140" y="775" width="40" height="40" as="geometry" />
        </mxCell>
        <mxCell id="7UYHVQ5-cGlNShHgb3-M-36" value="" style="rounded=0;whiteSpace=wrap;html=1;" parent="1" vertex="1">
          <mxGeometry x="130" y="820" width="180" height="540" as="geometry" />
        </mxCell>
        <mxCell id="7UYHVQ5-cGlNShHgb3-M-37" value="" style="endArrow=none;html=1;rounded=0;entryX=1;entryY=0;entryDx=0;entryDy=0;exitX=0;exitY=1;exitDx=0;exitDy=0;" parent="1" source="7UYHVQ5-cGlNShHgb3-M-36" target="7UYHVQ5-cGlNShHgb3-M-36" edge="1">
          <mxGeometry width="50" height="50" relative="1" as="geometry">
            <mxPoint x="40" y="1110" as="sourcePoint" />
            <mxPoint x="90" y="1060" as="targetPoint" />
          </mxGeometry>
        </mxCell>
        <mxCell id="7UYHVQ5-cGlNShHgb3-M-38" value="" style="endArrow=none;html=1;rounded=0;entryX=0;entryY=0;entryDx=0;entryDy=0;exitX=1;exitY=1;exitDx=0;exitDy=0;" parent="1" source="7UYHVQ5-cGlNShHgb3-M-36" target="7UYHVQ5-cGlNShHgb3-M-36" edge="1">
          <mxGeometry width="50" height="50" relative="1" as="geometry">
            <mxPoint x="50" y="1070" as="sourcePoint" />
            <mxPoint x="100" y="1020" as="targetPoint" />
          </mxGeometry>
        </mxCell>
        <mxCell id="7UYHVQ5-cGlNShHgb3-M-39" value="导航栏" style="text;html=1;align=center;verticalAlign=middle;whiteSpace=wrap;rounded=0;fontSize=20;" parent="1" vertex="1">
          <mxGeometry x="130" y="1055" width="180" height="70" as="geometry" />
        </mxCell>
        <mxCell id="9l1ryqFCYyEyq2lRf_uU-1" value="" style="triangle;whiteSpace=wrap;html=1;rotation=-180;" parent="1" vertex="1">
          <mxGeometry x="1050" y="780" width="20" height="30" as="geometry" />
        </mxCell>
        <mxCell id="9l1ryqFCYyEyq2lRf_uU-2" value="" style="endArrow=classic;html=1;rounded=0;entryX=0;entryY=0.5;entryDx=0;entryDy=0;" parent="1" source="9l1ryqFCYyEyq2lRf_uU-3" target="9l1ryqFCYyEyq2lRf_uU-1" edge="1">
          <mxGeometry width="50" height="50" relative="1" as="geometry">
            <mxPoint x="1190" y="840" as="sourcePoint" />
            <mxPoint x="1270" y="780" as="targetPoint" />
          </mxGeometry>
        </mxCell>
        <mxCell id="9l1ryqFCYyEyq2lRf_uU-3" value="返回主页" style="text;html=1;align=center;verticalAlign=middle;whiteSpace=wrap;rounded=0;fontSize=20;" parent="1" vertex="1">
          <mxGeometry x="1190" y="850" width="120" height="30" as="geometry" />
        </mxCell>
      </root>
    </mxGraphModel>
  </diagram>
</mxfile>
